<svg version="1.1" id="Layer_1" xmlns="http://www.w3.org/2000/svg" xmlns:xlink="http://www.w3.org/1999/xlink" x="0px" y="0px"
	 width="100%" viewBox="0 0 225 225" enable-background="new 0 0 225 225" xml:space="preserve">
<path fill="#FDFD00" opacity="1.000000" stroke="none" 
	d="
M226.000000,93.000000 
	C226.000000,106.354225 226.000000,119.708458 225.672333,133.229279 
	C224.996277,133.938385 224.467575,134.437531 224.325211,135.029587 
	C212.643433,183.607605 182.512711,213.417618 133.688599,224.291061 
	C133.031464,224.437424 132.558777,225.411987 132.000000,226.000000 
	C120.312439,226.000000 108.624878,226.000000 96.747307,225.656052 
	C95.829437,224.963791 95.134575,224.429611 94.368996,224.293716 
	C46.610580,215.814468 9.562315,176.968613 2.768346,130.025223 
	C2.660555,129.280441 1.610388,128.672043 0.999999,128.000000 
	C1.000000,118.645775 1.000000,109.291542 1.329701,99.804070 
	C2.078074,98.647896 2.718138,97.659439 2.883589,96.597076 
	C10.333961,48.758041 47.338440,11.230075 95.272781,2.858819 
	C96.259956,2.686419 97.094337,1.639131 98.000000,0.999999 
	C108.687561,1.000000 119.375122,1.000000 130.202194,1.324929 
	C136.200180,3.267893 142.167755,4.570706 147.899612,6.554573 
	C188.357025,20.557407 213.548492,48.540958 223.955673,89.994995 
	C224.232635,91.098206 225.300797,92.002785 226.000000,93.000000 
M46.820755,85.515869 
	C46.887173,107.514503 47.017582,129.513275 46.967857,151.511642 
	C46.957481,156.099625 48.580116,158.192871 53.364410,158.183655 
	C93.691734,158.105850 134.019394,158.098206 174.346603,158.202225 
	C179.425491,158.215332 181.049667,155.976837 180.960327,151.214249 
	C180.813492,143.385986 181.085251,135.550858 181.087967,127.718590 
	C181.093918,110.552917 181.093796,93.386894 180.984421,76.221725 
	C180.947784,70.469856 179.228348,68.929619 173.499039,68.842659 
	C171.166214,68.807251 168.756012,69.168427 166.514221,68.704903 
	C159.399673,67.233864 156.041290,71.462563 152.622314,77.527786 
	C159.531494,77.527786 165.753113,77.527786 172.061768,77.527786 
	C172.061768,99.606140 172.061768,121.039009 172.061768,142.579910 
	C133.158264,142.579910 94.466461,142.579910 55.871838,142.579910 
	C55.871838,120.770943 55.871838,99.335724 55.871838,77.410202 
	C57.967979,77.410202 59.757854,77.410202 61.547729,77.410202 
	C80.047256,77.410202 98.546791,77.409760 117.046318,77.410416 
	C124.696648,77.410683 125.521332,76.796715 128.087708,69.116844 
	C127.620277,69.006180 127.160126,68.801468 126.700226,68.802063 
	C102.035538,68.833878 77.370865,68.881386 52.706200,68.931915 
	C48.659233,68.940208 47.160690,71.512787 46.933464,75.027145 
	C46.729485,78.181877 46.847858,81.357460 46.820755,85.515869 
M123.942970,85.431099 
	C117.469719,94.607178 110.996475,103.783257 104.356430,113.195778 
	C106.645370,114.902115 108.435081,116.236298 110.358749,117.670334 
	C126.683228,99.791344 142.733536,82.459602 158.379013,64.769806 
	C160.371185,62.517326 160.962372,58.362564 160.819397,55.150661 
	C160.742096,53.414135 157.990082,51.316940 155.981140,50.284214 
	C154.061600,49.297451 151.816116,49.710865 151.176926,52.751728 
	C151.006271,53.563637 148.919144,54.831722 148.655319,54.633663 
	C145.637970,52.368439 145.202820,55.572697 144.313644,56.795269 
	C137.564362,66.075172 130.976044,75.472153 123.942970,85.431099 
M132.473709,177.066162 
	C132.777100,176.663559 133.431717,176.066864 133.332245,175.886887 
	C131.161392,171.958588 128.906693,168.076630 126.088730,163.178802 
	C119.215981,163.178802 110.941536,163.089523 102.674500,163.296204 
	C101.684525,163.320938 100.361282,164.775513 99.835052,165.874893 
	C98.124153,169.449249 96.711678,173.166458 95.071777,177.098557 
	C106.894096,177.098557 119.270103,177.098557 132.473709,177.066162 
M87.236328,130.333511 
	C93.113441,129.594528 99.069992,129.206436 104.819740,127.904793 
	C106.566093,127.509453 109.062332,124.477562 108.921623,122.851715 
	C108.553398,118.596886 104.981209,116.616516 101.014641,115.813759 
	C97.470909,115.096573 94.757744,116.384743 93.517868,119.910461 
	C91.897194,124.518990 90.092247,128.875793 84.513702,130.070114 
	C85.154236,130.143127 85.794762,130.216141 87.236328,130.333511 
z"/>
<path fill="#020200" opacity="1.000000" stroke="none" 
	d="
M97.531342,0.999999 
	C97.094337,1.639131 96.259956,2.686419 95.272781,2.858819 
	C47.338440,11.230075 10.333961,48.758041 2.883589,96.597076 
	C2.718138,97.659439 2.078074,98.647896 1.329701,99.335411 
	C1.000000,66.406776 1.000000,33.813553 1.000000,1.000000 
	C33.020557,1.000000 65.041618,1.000000 97.531342,0.999999 
z"/>
<path fill="#010100" opacity="1.000000" stroke="none" 
	d="
M0.999999,128.468658 
	C1.610388,128.672043 2.660555,129.280441 2.768346,130.025223 
	C9.562315,176.968613 46.610580,215.814468 94.368996,224.293716 
	C95.134575,224.429611 95.829437,224.963791 96.278648,225.656052 
	C64.405273,226.000000 32.810543,226.000000 1.000000,226.000000 
	C1.000000,193.646088 1.000000,161.291702 0.999999,128.468658 
z"/>
<path fill="#010100" opacity="1.000000" stroke="none" 
	d="
M226.000000,92.531342 
	C225.300797,92.002785 224.232635,91.098206 223.955673,89.994995 
	C213.548492,48.540958 188.357025,20.557407 147.899612,6.554573 
	C142.167755,4.570706 136.200180,3.267893 130.670853,1.324929 
	C162.592407,1.000000 194.184830,1.000000 226.000000,1.000000 
	C226.000000,31.353865 226.000000,61.708275 226.000000,92.531342 
z"/>
<path fill="#010100" opacity="1.000000" stroke="none" 
	d="
M132.468658,226.000000 
	C132.558777,225.411987 133.031464,224.437424 133.688599,224.291061 
	C182.512711,213.417618 212.643433,183.607605 224.325211,135.029587 
	C224.467575,134.437531 224.996277,133.938385 225.672333,133.697937 
	C226.000000,164.594376 226.000000,195.188736 226.000000,226.000000 
	C194.979446,226.000000 163.958374,226.000000 132.468658,226.000000 
z"/>
<path fill="#070700" opacity="1.000000" stroke="none" 
	d="
M46.822388,85.019852 
	C46.847858,81.357460 46.729485,78.181877 46.933464,75.027145 
	C47.160690,71.512787 48.659233,68.940208 52.706200,68.931915 
	C77.370865,68.881386 102.035538,68.833878 126.700226,68.802063 
	C127.160126,68.801468 127.620277,69.006180 128.087708,69.116844 
	C125.521332,76.796715 124.696648,77.410683 117.046318,77.410416 
	C98.546791,77.409760 80.047256,77.410202 61.547729,77.410202 
	C59.757854,77.410202 57.967979,77.410202 55.871838,77.410202 
	C55.871838,99.335724 55.871838,120.770943 55.871838,142.579910 
	C94.466461,142.579910 133.158264,142.579910 172.061768,142.579910 
	C172.061768,121.039009 172.061768,99.606140 172.061768,77.527786 
	C165.753113,77.527786 159.531494,77.527786 152.622314,77.527786 
	C156.041290,71.462563 159.399673,67.233864 166.514221,68.704903 
	C168.756012,69.168427 171.166214,68.807251 173.499039,68.842659 
	C179.228348,68.929619 180.947784,70.469856 180.984421,76.221725 
	C181.093796,93.386894 181.093918,110.552917 181.087967,127.718590 
	C181.085251,135.550858 180.813492,143.385986 180.960327,151.214249 
	C181.049667,155.976837 179.425491,158.215332 174.346603,158.202225 
	C134.019394,158.098206 93.691734,158.105850 53.364410,158.183655 
	C48.580116,158.192871 46.957481,156.099625 46.967857,151.511642 
	C47.017582,129.513275 46.887173,107.514503 46.822388,85.019852 
z"/>
<path fill="#050500" opacity="1.000000" stroke="none" 
	d="
M124.140259,85.131866 
	C130.976044,75.472153 137.564362,66.075172 144.313644,56.795269 
	C145.202820,55.572697 145.637970,52.368439 148.655319,54.633663 
	C148.919144,54.831722 151.006271,53.563637 151.176926,52.751728 
	C151.816116,49.710865 154.061600,49.297451 155.981140,50.284214 
	C157.990082,51.316940 160.742096,53.414135 160.819397,55.150661 
	C160.962372,58.362564 160.371185,62.517326 158.379013,64.769806 
	C142.733536,82.459602 126.683228,99.791344 110.358749,117.670334 
	C108.435081,116.236298 106.645370,114.902115 104.356430,113.195778 
	C110.996475,103.783257 117.469719,94.607178 124.140259,85.131866 
z"/>
<path fill="#040400" opacity="1.000000" stroke="none" 
	d="
M132.059906,177.082367 
	C119.270103,177.098557 106.894096,177.098557 95.071777,177.098557 
	C96.711678,173.166458 98.124153,169.449249 99.835052,165.874893 
	C100.361282,164.775513 101.684525,163.320938 102.674500,163.296204 
	C110.941536,163.089523 119.215981,163.178802 126.088730,163.178802 
	C128.906693,168.076630 131.161392,171.958588 133.332245,175.886887 
	C133.431717,176.066864 132.777100,176.663559 132.059906,177.082367 
z"/>
<path fill="#050500" opacity="1.000000" stroke="none" 
	d="
M86.835815,130.311325 
	C85.794762,130.216141 85.154236,130.143127 84.513702,130.070114 
	C90.092247,128.875793 91.897194,124.518990 93.517868,119.910461 
	C94.757744,116.384743 97.470909,115.096573 101.014641,115.813759 
	C104.981209,116.616516 108.553398,118.596886 108.921623,122.851715 
	C109.062332,124.477562 106.566093,127.509453 104.819740,127.904793 
	C99.069992,129.206436 93.113441,129.594528 86.835815,130.311325 
z"/>
</svg>